<!DOCTYPE svg PUBLIC "-//W3C//DTD SVG 1.1//EN" "http://www.w3.org/Graphics/SVG/1.1/DTD/svg11.dtd">
<!-- Uploaded to: SVG Repo, www.svgrepo.com, Transformed by: SVG Repo Mixer Tools -->
<svg fill="#fff" height="800px" width="800px" version="1.1" xmlns="http://www.w3.org/2000/svg" viewBox="0 0 293.111 293.111" xmlns:xlink="http://www.w3.org/1999/xlink" enable-background="new 0 0 293.111 293.111" stroke="#fff">
<g id="SVGRepo_bgCarrier" stroke-width="0"/>
<g id="SVGRepo_iconCarrier"> <g> <circle cx="109.713" cy="25.907" r="25.907"/> <path d="m242.9,217.234c-0.077-0.06-7.804-6.154-13.099-16.951-7.043-14.362-6.35-29.688 2.058-45.549 22.443-42.337 3.966-60.78 1.539-62.942l-14.241-14.342c0.661-2.778-0.084-5.821-2.252-7.987l-11.27-11.257 2.06-2.834c4.046-5.565 3.164-13.503-2.324-17.653-5.59-4.226-13.531-3.032-17.641,2.602l-5.207-5.201c1.479-5.814-0.198-12.266-5.072-16.608-6.298-5.612-16.08-5.556-22.315,0.125-7.094,6.464-7.283,17.462-0.571,24.167 4.324,4.319 10.423,5.755 15.944,4.344l7.1,7.092-10.077,13.861-37.872-7.838c-1.104-0.228-2.229-0.344-3.356-0.344h-32.331c-9.665,0-17.501,7.835-17.501,17.501v134.312l-26.863,60.661c-3.155,7.659 0.495,16.427 8.155,19.583 1.869,0.77 3.805,1.135 5.708,1.135 5.897,0 11.489-3.5 13.875-9.29l26-63.105c0.666-1.617 1.045-3.339 1.118-5.087l2-45.561c0.07-1.598 1.386-2.857 2.985-2.857 1.254,0 2.374,0.782 2.806,1.959l14.857,40.506-13.835,65.324c-1.716,8.104 3.463,16.065 11.567,17.782 1.048,0.222 2.093,0.328 3.122,0.328 6.936-0.001 13.165-4.839 14.66-11.896l14.729-69.546c0.584-2.758 0.379-5.625-0.592-8.272l-14.082-38.396v-16.275c0,0-15.334,0.516-16.003,0.485-8.632-0.406-15.788-3.268-18.759-10.196-4.529-10.559-20.838-49.659-20.838-49.659l30.589,42.666c2.44,3.402 6.419,5.357 10.603,5.209l49.909-1.773c1.435-0.051 2.804-0.342 4.072-0.833 4.977-1.927 8.378-6.938 7.948-12.615-0.511-6.753-6.53-11.762-13.297-11.522l-42.821,1.521-27.701-38.638 31.851,26.482 4.447-.158v-11.23l27.665,5.759c0.849,0.177 1.702,0.263 2.548,0.263 3.948,0 7.729-1.875 10.109-5.149l12.511-17.21 9.375,9.365c1.659,1.658 3.833,2.486 6.007,2.486 0.62,0 1.239-0.075 1.847-0.21l14.379,14.482c0.107,0.107 0.22,0.21 0.338,0.307 0.167,0.138 16.484,14.162-3.555,51.965-12.251,23.108-7.951,41.972-2.187,53.727 6.197,12.64 15.267,19.791 15.649,20.09 0.821,0.64 1.795,0.949 2.762,0.949 1.34,0 2.666-0.596 3.554-1.735 1.529-1.964 1.177-4.791-0.784-6.319z"/> </g> </g>
</svg>